<svg width="25" height="25" viewBox="0 0 25 25" fill="none" xmlns="http://www.w3.org/2000/svg">
<path d="M21.875 9.375H15.625V3.125C15.625 2.2962 15.2958 1.50134 14.7097 0.915291C14.1237 0.32924 13.3288 0 12.5 0C11.6712 0 10.8763 0.32924 10.2903 0.915291C9.70424 1.50134 9.375 2.2962 9.375 3.125L9.48594 9.375H3.125C2.2962 9.375 1.50134 9.70424 0.915291 10.2903C0.32924 10.8763 0 11.6712 0 12.5C0 13.3288 0.32924 14.1237 0.915291 14.7097C1.50134 15.2958 2.2962 15.625 3.125 15.625L9.48594 15.5141L9.375 21.875C9.375 22.7038 9.70424 23.4987 10.2903 24.0847C10.8763 24.6708 11.6712 25 12.5 25C13.3288 25 14.1237 24.6708 14.7097 24.0847C15.2958 23.4987 15.625 22.7038 15.625 21.875V15.5141L21.875 15.625C22.7038 15.625 23.4987 15.2958 24.0847 14.7097C24.6708 14.1237 25 13.3288 25 12.5C25 11.6712 24.6708 10.8763 24.0847 10.2903C23.4987 9.70424 22.7038 9.375 21.875 9.375Z" fill="white"/>
</svg>
