<svg width="25" height="26" viewBox="0 0 25 26" fill="none" xmlns="http://www.w3.org/2000/svg">
<path d="M24.3553 15.186L20.1568 12.7613L24.3553 10.3367C24.9678 9.97936 25.172 9.20091 24.8274 8.58837L22.2752 4.17295C22.1044 3.88018 21.8251 3.66647 21.4979 3.57809C21.1707 3.48972 20.8218 3.5338 20.5269 3.70078L16.3284 6.12544V1.27613C16.3284 0.57426 15.7541 0 15.0523 0H9.94773C9.24586 0 8.6716 0.57426 8.6716 1.27613V6.12544L4.47313 3.70078C4.17817 3.5338 3.8293 3.48972 3.50208 3.57809C3.17486 3.66647 2.89562 3.88018 2.72483 4.17295L0.172561 8.58837C-0.184756 9.20091 0.0321866 9.97936 0.64473 10.3367L4.84321 12.7613L0.64473 15.186C0.0321866 15.5433 -0.171995 16.3217 0.172561 16.9343L2.72483 21.3497C3.08214 21.9622 3.86058 22.1664 4.47313 21.8219L8.6716 19.3972V24.2465C8.6716 24.9484 9.24586 25.5226 9.94773 25.5226H15.0523C15.7541 25.5226 16.3284 24.9484 16.3284 24.2465V19.3972L20.5269 21.8219C21.1394 22.1792 21.9179 21.9622 22.2752 21.3497L24.8274 16.9343C25.1848 16.3217 24.9678 15.5433 24.3553 15.186ZM20.7055 18.9761L14.7332 15.5305C14.3121 15.2753 13.7761 15.5816 13.7761 16.0793V22.9704H11.2239V16.0793C11.2239 15.5943 10.6879 15.2753 10.2668 15.5305L4.29447 18.9761L3.01834 16.7684L8.99064 13.3228C9.41176 13.0804 9.41176 12.4678 8.99064 12.2126L3.01834 8.76703L4.29447 6.55932L10.2668 10.0049C10.6879 10.2473 11.2239 9.94107 11.2239 9.44338V2.55226H13.7761V9.44338C13.7761 9.92831 14.3121 10.2473 14.7332 9.99212L20.7055 6.54656L21.9817 8.75427L16.0094 12.1998C15.5882 12.4423 15.5882 13.0548 16.0094 13.3101L21.9817 16.7556L20.7055 18.9761Z" fill="white"/>
</svg>
