<svg width="27" height="26" viewBox="0 0 27 26" fill="none" xmlns="http://www.w3.org/2000/svg">
<path d="M13.5 24.8688H17.2219C17.2737 23.192 17.5244 22.27 17.9744 22.1028C22.6681 20.3568 26 15.9452 26 10.7783H1C1 15.8331 4.18938 20.1656 8.72313 21.9857C9.19688 22.1757 9.55125 23.1375 9.785 24.8688H13.5Z" stroke="white" stroke-width="2" stroke-linejoin="round"/>
<path d="M7.52686 15.0809C7.75186 15.8081 8.04936 16.409 8.41873 16.8832C8.80385 17.3695 9.25369 17.803 9.75623 18.1722M14.2587 10.7943C15.6449 7.99812 17.0245 5.19881 18.3975 2.3964C19.0537 1.04249 20.385 0.716572 21.6131 1.23118C22.8412 1.74579 23.3381 3.21732 22.8225 4.24347C22.5037 4.87693 21.4225 7.05605 19.5787 10.7808" stroke="white" stroke-width="2" stroke-linecap="round"/>
</svg>
