<svg width="24" height="22" viewBox="0 0 24 22" fill="none" xmlns="http://www.w3.org/2000/svg">
<path d="M12 22L11.4545 9.77778L7.63636 8.55556H0V6.11111H6.54545L14.1818 0L15.6 1.86389L11.0727 5.5H14.1818L22.6909 0L24 1.71111L14.7273 9.77778L14.1818 22H12ZM5.45455 4.88889C4.85455 4.88889 4.34109 4.64933 3.91418 4.17022C3.48655 3.69193 3.27273 3.11667 3.27273 2.44444C3.27273 1.77222 3.48655 1.19696 3.91418 0.718666C4.34109 0.239555 4.85455 0 5.45455 0C6.05455 0 6.568 0.239555 6.99491 0.718666C7.42255 1.19696 7.63636 1.77222 7.63636 2.44444C7.63636 3.11667 7.42255 3.69193 6.99491 4.17022C6.568 4.64933 6.05455 4.88889 5.45455 4.88889Z" fill="white"/>
</svg>
