<svg width="28" height="29" viewBox="0 0 28 29" fill="none" xmlns="http://www.w3.org/2000/svg">
<path d="M14 27.3859C21.1799 27.3859 27 21.4794 27 14.193C27 6.90649 21.1799 1 14 1C6.8201 1 1 6.90649 1 14.193C1 21.4794 6.8201 27.3859 14 27.3859Z" stroke="white" stroke-width="2" stroke-linejoin="round"/>
<path d="M19.8502 8.91602L17.2502 11.5546L19.8502 14.1932M18.5502 18.8107C18.5502 18.8107 17.2502 21.4493 14.0002 21.4493C10.7502 21.4493 9.4502 18.8107 9.4502 18.8107" stroke="white" stroke-width="2" stroke-linecap="round" stroke-linejoin="round"/>
<path d="M9.4501 14.1932C10.886 14.1932 12.0501 13.0119 12.0501 11.5546C12.0501 10.0974 10.886 8.91602 9.4501 8.91602C8.01416 8.91602 6.8501 10.0974 6.8501 11.5546C6.8501 13.0119 8.01416 14.1932 9.4501 14.1932Z" stroke="white" stroke-width="2" stroke-linecap="round" stroke-linejoin="round"/>
</svg>
