<svg width="27" height="25" viewBox="0 0 27 25" fill="none" xmlns="http://www.w3.org/2000/svg">
<path d="M24.02 20.9967V14.4312C24.5904 14.1397 25.1273 13.7869 25.6213 13.3791V20.9967C25.6213 22.0584 25.1995 23.0767 24.4488 23.8275C23.698 24.5782 22.6797 25 21.618 25H4.00333C2.94158 25 1.92332 24.5782 1.17255 23.8275C0.421778 23.0767 0 22.0584 0 20.9967V8.18601C0 7.12426 0.421778 6.106 1.17255 5.35523C1.92332 4.60446 2.94158 4.18268 4.00333 4.18268H11.5408C11.3926 4.70612 11.2935 5.24221 11.2446 5.78401H4.00333C3.36628 5.78401 2.75532 6.03708 2.30486 6.48754C1.8544 6.938 1.60133 7.54896 1.60133 8.18601V8.66961L12.8107 15.2639L15.1182 13.906C15.6386 14.2535 16.1975 14.5481 16.7884 14.7819L13.2174 16.8828C13.1153 16.9428 13.0011 16.9794 12.8831 16.9899C12.7652 17.0004 12.6464 16.9846 12.5352 16.9437L12.4039 16.8828L1.60133 10.5288V20.9967C1.60133 21.6337 1.8544 22.2447 2.30486 22.6951C2.75532 23.1456 3.36628 23.3987 4.00333 23.3987H21.618C22.255 23.3987 22.866 23.1456 23.3165 22.6951C23.7669 22.2447 24.02 21.6337 24.02 20.9967ZM13.8275 5.65591C14.241 5.55014 14.6292 5.36278 14.9693 5.10484C15.3094 4.8469 15.5944 4.52359 15.8078 4.1539C16.0211 3.78421 16.1584 3.37561 16.2116 2.95211C16.2648 2.52861 16.2327 2.09876 16.1174 1.6878L15.8692 0.795862C16.2759 0.483602 16.7163 0.21618 17.1839 0L17.7251 0.573277C18.0244 0.890834 18.3855 1.14388 18.786 1.31689C19.1866 1.4899 19.6184 1.57922 20.0547 1.57937C20.4911 1.57952 20.9229 1.4905 21.3236 1.31776C21.7243 1.14503 22.0855 0.892229 22.385 0.574878L22.9039 0.02402C23.3811 0.248206 23.8294 0.52844 24.241 0.85351L24.0392 1.53087C23.9143 1.94887 23.8761 2.38799 23.9269 2.82128C23.9778 3.25458 24.1166 3.67291 24.335 4.05062C24.5533 4.42833 24.8465 4.75746 25.1965 5.0178C25.5466 5.27815 25.9462 5.46423 26.3707 5.56463L26.9296 5.69594C26.9939 6.23661 26.9992 6.78266 26.9456 7.32449L26.209 7.51345C25.7953 7.61905 25.407 7.80628 25.0667 8.06414C24.7265 8.32201 24.4412 8.64529 24.2277 9.015C24.0142 9.3847 23.8768 9.79336 23.8235 10.2169C23.7702 10.6405 23.8022 11.0705 23.9175 11.4816L24.1673 12.3719C23.7606 12.6858 23.3186 12.9532 22.851 13.1694L22.3098 12.5961C22.0106 12.2787 21.6498 12.0257 21.2494 11.8527C20.849 11.6797 20.4175 11.5903 19.9813 11.59C19.5451 11.5897 19.1135 11.6785 18.7129 11.851C18.3123 12.0234 17.9511 12.2759 17.6515 12.5929L17.1311 13.1437C16.6553 12.9195 16.2067 12.6417 15.7939 12.3158L15.9973 11.6385C16.1225 11.2204 16.1609 10.7811 16.1101 10.3476C16.0594 9.91415 15.9206 9.49561 15.7023 9.11772C15.4839 8.73982 15.1907 8.41054 14.8405 8.15008C14.4902 7.88963 14.0905 7.7035 13.6658 7.60313L13.1053 7.47182C13.0414 6.93166 13.036 6.38617 13.0893 5.84486L13.8275 5.65591ZM21.618 6.58468C21.618 6.15998 21.4493 5.75267 21.149 5.45237C20.8487 5.15206 20.4414 4.98335 20.0167 4.98335C19.592 4.98335 19.1846 5.15206 18.8843 5.45237C18.584 5.75267 18.4153 6.15998 18.4153 6.58468C18.4153 7.00938 18.584 7.41668 18.8843 7.71699C19.1846 8.0173 19.592 8.18601 20.0167 8.18601C20.4414 8.18601 20.8487 8.0173 21.149 7.71699C21.4493 7.41668 21.618 7.00938 21.618 6.58468Z" fill="white"/>
</svg>
