<svg width="25" height="27" viewBox="0 0 25 27" fill="none" xmlns="http://www.w3.org/2000/svg">
<path d="M10.119 3.57143C10.119 4.51863 9.74277 5.42704 9.073 6.09681C8.40323 6.76658 7.49482 7.14286 6.54762 7.14286C5.60042 7.14286 4.69201 6.76658 4.02224 6.09681C3.35246 5.42704 2.97619 4.51863 2.97619 3.57143C2.97619 2.62423 3.35246 1.71582 4.02224 1.04605C4.69201 0.376274 5.60042 0 6.54762 0C7.49482 0 8.40323 0.376274 9.073 1.04605C9.74277 1.71582 10.119 2.62423 10.119 3.57143ZM2.10476 8.33333C0.940476 8.33333 0 9.275 0 10.4381V10.8667C0 11.1131 7.09579e-08 12.5429 0.833333 13.9321C1.48571 15.0155 2.59167 15.9881 4.375 16.4238C4.61078 15.7956 5.03265 15.2543 5.58425 14.8723C6.13585 14.4902 6.79091 14.2856 7.4619 14.2857H8.75476C8.24752 13.8393 7.84136 13.2898 7.56339 12.674C7.28542 12.0581 7.14206 11.39 7.14286 10.7143C7.14286 9.84643 7.375 9.03333 7.77976 8.33333H2.10476ZM16.0298 8.33333C16.4484 9.0569 16.6681 9.87835 16.6667 10.7143C16.6667 11.2214 16.5881 11.7107 16.4405 12.169C17.0966 11.9932 17.7731 11.9043 18.4524 11.9048C20.2393 11.9048 21.8845 12.5107 23.1952 13.5286C23.8095 12.2774 23.8095 11.0893 23.8095 10.8655V10.4369C23.8095 9.27619 22.8679 8.33333 21.7048 8.33333H16.0298ZM11.931 15.4762C11.1343 16.7197 10.712 18.166 10.7143 19.6429C10.712 21.1197 11.1343 22.566 11.931 23.8095H11.9048C8.79286 23.8095 7.07381 22.544 6.19048 21.075C5.35714 19.6857 5.35714 18.2571 5.35714 18.0083V17.5798C5.35714 16.4179 6.29881 15.4762 7.4619 15.4762H11.931ZM17.2619 7.14286C17.7309 7.14286 18.1953 7.05048 18.6286 6.871C19.0619 6.69152 19.4556 6.42845 19.7873 6.09681C20.1189 5.76517 20.382 5.37146 20.5615 4.93816C20.741 4.50485 20.8333 4.04044 20.8333 3.57143C20.8333 3.10242 20.741 2.63801 20.5615 2.2047C20.382 1.7714 20.1189 1.37768 19.7873 1.04605C19.4556 0.714409 19.0619 0.45134 18.6286 0.271859C18.1953 0.0923777 17.7309 -6.98874e-09 17.2619 0C16.3147 1.41144e-08 15.4063 0.376274 14.7365 1.04605C14.0667 1.71582 13.6905 2.62423 13.6905 3.57143C13.6905 4.51863 14.0667 5.42704 14.7365 6.09681C15.4063 6.76658 16.3147 7.14286 17.2619 7.14286ZM18.4524 13.0952C20.1889 13.0952 21.8543 13.7851 23.0822 15.013C24.3102 16.2409 25 17.9063 25 19.6429C25 21.3794 24.3102 23.0448 23.0822 24.2727C21.8543 25.5006 20.1889 26.1905 18.4524 26.1905C16.7158 26.1905 15.0504 25.5006 13.8225 24.2727C12.5946 23.0448 11.9048 21.3794 11.9048 19.6429C11.9048 17.9063 12.5946 16.2409 13.8225 15.013C15.0504 13.7851 16.7158 13.0952 18.4524 13.0952ZM19.0488 23.2179V20.2381H22.0202C22.1781 20.2381 22.3295 20.1754 22.4411 20.0638C22.5528 19.9521 22.6155 19.8007 22.6155 19.6429C22.6155 19.485 22.5528 19.3336 22.4411 19.222C22.3295 19.1103 22.1781 19.0476 22.0202 19.0476H19.0476V16.0714C19.0476 15.9136 18.9849 15.7622 18.8733 15.6505C18.7617 15.5389 18.6102 15.4762 18.4524 15.4762C18.2945 15.4762 18.1431 15.5389 18.0315 15.6505C17.9199 15.7622 17.8571 15.9136 17.8571 16.0714V19.0476H14.8762C14.7183 19.0476 14.5669 19.1103 14.4553 19.222C14.3437 19.3336 14.281 19.485 14.281 19.6429C14.281 19.8007 14.3437 19.9521 14.4553 20.0638C14.5669 20.1754 14.7183 20.2381 14.8762 20.2381H17.8571V23.2179C17.8571 23.3757 17.9199 23.5271 18.0315 23.6388C18.1431 23.7504 18.2945 23.8131 18.4524 23.8131C18.6102 23.8131 18.7617 23.7504 18.8733 23.6388C18.9849 23.5271 19.0488 23.3757 19.0488 23.2179ZM8.33809 10.8976C8.37392 11.5943 8.61298 12.2652 9.02577 12.8276C9.43856 13.3899 10.007 13.8191 10.6609 14.062C11.3148 14.305 12.0256 14.3511 12.7054 14.1948C13.3853 14.0384 14.0044 13.6863 14.4864 13.1821C14.9685 12.6778 15.2923 12.0434 15.4179 11.3572C15.5435 10.671 15.4654 9.9631 15.1932 9.32079C14.921 8.67849 14.4667 8.12995 13.8863 7.74291C13.306 7.35587 12.625 7.14727 11.9274 7.14286H11.9048C10.9576 7.14286 10.0492 7.51913 9.37938 8.1889C8.70961 8.85868 8.33333 9.76708 8.33333 10.7143L8.33809 10.8976Z" fill="white"/>
</svg>
