<svg width="25" height="25" viewBox="0 0 25 25" fill="none" xmlns="http://www.w3.org/2000/svg">
<path fill-rule="evenodd" clip-rule="evenodd" d="M12.5 0C19.4037 0 25 5.59624 25 12.5C25.0044 15.3849 24.0067 18.1817 22.1775 20.4125L22.2025 20.44L22.0375 20.58C20.8653 21.9665 19.4045 23.0804 17.7571 23.8438C16.1098 24.6073 14.3156 25.0018 12.5 25C8.8125 25 5.50001 23.4037 3.21251 20.8662L2.96251 20.5787L2.79751 20.4412L2.82251 20.4112C0.99346 18.1808 -0.00420928 15.3844 1.33493e-05 12.5C1.33493e-05 5.59624 5.59626 0 12.5 0ZM12.5 18.75C10.175 18.75 8.07375 19.49 6.50876 20.5062C8.23662 21.8033 10.3395 22.503 12.5 22.5C14.6605 22.503 16.7634 21.8033 18.4912 20.5062C16.7028 19.3608 14.6238 18.7513 12.5 18.75ZM12.5 2.5C10.6182 2.49994 8.77449 3.03089 7.18091 4.03181C5.58733 5.03273 4.30852 6.46299 3.49146 8.15821C2.6744 9.85342 2.35227 11.7448 2.56207 13.6149C2.77188 15.485 3.50512 17.258 4.67751 18.73C6.70376 17.2762 9.46875 16.25 12.5 16.25C15.5312 16.25 18.2962 17.2762 20.3225 18.73C21.4949 17.258 22.2281 15.485 22.4379 13.6149C22.6477 11.7448 22.3256 9.85342 21.5085 8.15821C20.6915 6.46299 19.4127 5.03273 17.8191 4.03181C16.2255 3.03089 14.3818 2.49994 12.5 2.5ZM12.5 4.99999C13.8261 4.99999 15.0978 5.52678 16.0355 6.46446C16.9732 7.40214 17.5 8.67391 17.5 9.99999C17.5 11.3261 16.9732 12.5978 16.0355 13.5355C15.0978 14.4732 13.8261 15 12.5 15C11.1739 15 9.90215 14.4732 8.96447 13.5355C8.02679 12.5978 7.5 11.3261 7.5 9.99999C7.5 8.67391 8.02679 7.40214 8.96447 6.46446C9.90215 5.52678 11.1739 4.99999 12.5 4.99999ZM12.5 7.49999C11.837 7.49999 11.2011 7.76338 10.7322 8.23222C10.2634 8.70106 10 9.33695 10 9.99999C10 10.663 10.2634 11.2989 10.7322 11.7678C11.2011 12.2366 11.837 12.5 12.5 12.5C13.163 12.5 13.7989 12.2366 14.2678 11.7678C14.7366 11.2989 15 10.663 15 9.99999C15 9.33695 14.7366 8.70106 14.2678 8.23222C13.7989 7.76338 13.163 7.49999 12.5 7.49999Z" fill="white"/>
</svg>
