<svg width="25" height="25" viewBox="0 0 25 25" fill="none" xmlns="http://www.w3.org/2000/svg">
<path fill-rule="evenodd" clip-rule="evenodd" d="M21.4286 2.67857H3.57143C3.33463 2.67857 3.10753 2.77264 2.94008 2.94008C2.77264 3.10753 2.67857 3.33463 2.67857 3.57143V21.4286C2.67857 21.6654 2.77264 21.8925 2.94008 22.0599C3.10753 22.2274 3.33463 22.3214 3.57143 22.3214H21.4286C21.6654 22.3214 21.8925 22.2274 22.0599 22.0599C22.2274 21.8925 22.3214 21.6654 22.3214 21.4286V3.57143C22.3214 3.33463 22.2274 3.10753 22.0599 2.94008C21.8925 2.77264 21.6654 2.67857 21.4286 2.67857ZM3.57143 0C2.62423 0 1.71582 0.376274 1.04605 1.04605C0.376274 1.71582 0 2.62423 0 3.57143V21.4286C0 22.3758 0.376274 23.2842 1.04605 23.954C1.71582 24.6237 2.62423 25 3.57143 25H21.4286C22.3758 25 23.2842 24.6237 23.954 23.954C24.6237 23.2842 25 22.3758 25 21.4286V3.57143C25 2.62423 24.6237 1.71582 23.954 1.04605C23.2842 0.376274 22.3758 0 21.4286 0H3.57143ZM19.6429 17.6018L15.1786 12.5L10.7571 17.5536L8.03571 14.2857L5.35714 17.5V19.6429H19.6429V17.6018ZM9.82143 12.5C10.5318 12.5 11.2131 12.2178 11.7155 11.7155C12.2178 11.2131 12.5 10.5318 12.5 9.82143C12.5 9.11103 12.2178 8.42972 11.7155 7.92739C11.2131 7.42506 10.5318 7.14286 9.82143 7.14286C9.11103 7.14286 8.42972 7.42506 7.92739 7.92739C7.42506 8.42972 7.14286 9.11103 7.14286 9.82143C7.14286 10.5318 7.42506 11.2131 7.92739 11.7155C8.42972 12.2178 9.11103 12.5 9.82143 12.5Z" fill="white"/>
</svg>
