<svg width="27" height="20" viewBox="0 0 27 20" fill="none" xmlns="http://www.w3.org/2000/svg">
<path d="M4.84615 6.76923L7.73077 13.0192L10.6154 6.76923M13.9808 6.76923V13.0192M17.8269 10.8798H19.25C19.876 10.8798 20.4779 10.6154 20.9048 10.1587C21.2566 9.78332 21.4691 9.29867 21.5067 8.7856C21.5443 8.27252 21.4049 7.76206 21.1115 7.33942C20.988 7.16342 20.8239 7.01973 20.6331 6.92049C20.4423 6.82125 20.2304 6.76937 20.0154 6.76923H17.8269V10.8798ZM17.8269 10.8798V13.0192M2.92308 1H24.0769C24.587 1 25.0761 1.20261 25.4367 1.56326C25.7974 1.9239 26 2.41305 26 2.92308V16.3846C26 16.8946 25.7974 17.3838 25.4367 17.7444C25.0761 18.1051 24.587 18.3077 24.0769 18.3077H2.92308C2.41305 18.3077 1.9239 18.1051 1.56326 17.7444C1.20261 17.3838 1 16.8946 1 16.3846V2.92308C1 2.41305 1.20261 1.9239 1.56326 1.56326C1.9239 1.20261 2.41305 1 2.92308 1Z" stroke="white" stroke-width="2" stroke-linecap="round" stroke-linejoin="round"/>
</svg>
