<svg width="25" height="25" viewBox="0 0 25 25" fill="none" xmlns="http://www.w3.org/2000/svg">
<path d="M24.7707 1.33473C24.9174 1.18825 24.9999 0.989492 25 0.782189C25.0001 0.574886 24.9179 0.376016 24.7715 0.229327C24.625 0.082638 24.4262 0.000146699 24.2189 1.95474e-07C24.0116 -0.000146308 23.8127 0.0820637 23.6661 0.228545L18.7492 5.14387V0.781637C18.7492 0.574449 18.6669 0.375747 18.5204 0.229243C18.3739 0.0827397 18.1752 0.000434538 17.968 0.000434538C17.7608 0.000434538 17.5621 0.0827397 17.4156 0.229243C17.2691 0.375747 17.1868 0.574449 17.1868 0.781637V5.27667C14.7197 4.04862 11.5777 4.74546 9.93721 7.16093L0.426851 21.1382C-0.241858 22.1225 -0.113741 23.4349 0.733082 24.2739C1.5924 25.1239 2.94388 25.2411 3.9407 24.5521L17.893 14.8901C19.0002 14.1294 19.7957 12.9947 20.1332 11.6944C20.4708 10.3941 20.3277 9.0157 19.7304 7.81246H24.2176C24.4248 7.81246 24.6235 7.73015 24.77 7.58365C24.9165 7.43714 24.9988 7.23844 24.9988 7.03125C24.9988 6.82407 24.9165 6.62536 24.77 6.47886C24.6235 6.33236 24.4248 6.25005 24.2176 6.25005H19.8538L24.7691 1.33473H24.7707ZM11.2403 8.02807C12.6808 5.91101 15.7165 5.6204 17.5399 7.42498C17.9627 7.84201 18.2882 8.34732 18.493 8.90478C18.6979 9.46224 18.777 10.0581 18.7247 10.6497C18.6725 11.2413 18.4902 11.814 18.1908 12.327C17.8914 12.8399 17.4824 13.2803 16.993 13.6168L3.04075 23.2787C2.86054 23.4038 2.64229 23.4619 2.42375 23.4431C2.2052 23.4242 2.00011 23.3296 1.84395 23.1756C1.69098 23.025 1.59575 22.8255 1.5749 22.6119C1.55405 22.3983 1.60891 22.1842 1.7299 22.0069L11.2403 8.02807Z" fill="white"/>
</svg>
