<svg width="33" height="33" viewBox="0 0 33 33" fill="none" xmlns="http://www.w3.org/2000/svg">
<path d="M16.4907 5.40918C17.9319 5.40918 19.3141 5.97328 20.3331 6.97738C21.3522 7.98148 21.9247 9.34333 21.9247 10.7633C21.9247 12.1834 21.3522 13.5452 20.3331 14.5493C19.3141 15.5534 17.9319 16.1175 16.4907 16.1175C15.0496 16.1175 13.6674 15.5534 12.6483 14.5493C11.6293 13.5452 11.0568 12.1834 11.0568 10.7633C11.0568 9.34333 11.6293 7.98148 12.6483 6.97738C13.6674 5.97328 15.0496 5.40918 16.4907 5.40918ZM16.4907 18.7946C22.4953 18.7946 27.3587 21.1906 27.3587 24.1488V26.8258H5.6228V24.1488C5.6228 21.1906 10.4862 18.7946 16.4907 18.7946Z" fill="white"/>
</svg>
