<svg width="25" height="18" viewBox="0 0 25 18" fill="none" xmlns="http://www.w3.org/2000/svg">
<path d="M14.7727 5.50133C14.7727 5.32852 14.8345 5.15071 14.958 4.96791C15.0807 4.78587 15.2178 4.66605 15.3693 4.60845C15.9186 4.41643 16.4678 4.27241 17.017 4.17641C17.5663 4.0804 18.1439 4.03239 18.75 4.03239C19.1288 4.03239 19.503 4.0562 19.8727 4.10382C20.2417 4.15221 20.6061 4.21481 20.9659 4.29162C21.1364 4.33002 21.283 4.42603 21.4057 4.57964C21.5292 4.73326 21.5909 4.90608 21.5909 5.0981C21.5909 5.42453 21.4867 5.66455 21.2784 5.81817C21.0701 5.97178 20.8049 6.01018 20.483 5.93338C20.2178 5.87577 19.9386 5.83237 19.6455 5.80319C19.3515 5.77477 19.053 5.76056 18.75 5.76056C18.2576 5.76056 17.7746 5.80856 17.3011 5.90457C16.8277 6.00058 16.3731 6.12539 15.9375 6.27901C15.5966 6.41342 15.3174 6.40382 15.1 6.25021C14.8818 6.09659 14.7727 5.84697 14.7727 5.50133ZM14.7727 11.8379C14.7727 11.6651 14.8345 11.4873 14.958 11.3045C15.0807 11.1225 15.2178 11.0027 15.3693 10.9451C15.9186 10.753 16.4678 10.609 17.017 10.513C17.5663 10.417 18.1439 10.369 18.75 10.369C19.1288 10.369 19.503 10.3928 19.8727 10.4404C20.2417 10.4888 20.6061 10.5514 20.9659 10.6282C21.1364 10.6666 21.283 10.7626 21.4057 10.9163C21.5292 11.0699 21.5909 11.2427 21.5909 11.4347C21.5909 11.7611 21.4867 12.0012 21.2784 12.1548C21.0701 12.3084 20.8049 12.3468 20.483 12.27C20.2178 12.2124 19.9386 12.169 19.6455 12.1398C19.3515 12.1114 19.053 12.0972 18.75 12.0972C18.2576 12.0972 17.7746 12.1406 17.3011 12.2274C16.8277 12.3134 16.3731 12.4332 15.9375 12.5868C15.5966 12.7212 15.3174 12.7162 15.1 12.5718C14.8818 12.4282 14.7727 12.1836 14.7727 11.8379ZM14.7727 8.66964C14.7727 8.49682 14.8345 8.31902 14.958 8.13621C15.0807 7.95418 15.2178 7.83436 15.3693 7.77676C15.9186 7.58474 16.4678 7.44072 17.017 7.34471C17.5663 7.2487 18.1439 7.2007 18.75 7.2007C19.1288 7.2007 19.503 7.22451 19.8727 7.27213C20.2417 7.32052 20.6061 7.38312 20.9659 7.45992C21.1364 7.49833 21.283 7.59434 21.4057 7.74795C21.5292 7.90157 21.5909 8.07438 21.5909 8.2664C21.5909 8.59283 21.4867 8.83286 21.2784 8.98647C21.0701 9.14009 20.8049 9.17849 20.483 9.10168C20.2178 9.04408 19.9386 9.00068 19.6455 8.97149C19.3515 8.94308 19.053 8.92887 18.75 8.92887C18.2576 8.92887 17.7746 8.97687 17.3011 9.07288C16.8277 9.16889 16.3731 9.2937 15.9375 9.44732C15.5966 9.58173 15.3174 9.57213 15.1 9.41852C14.8818 9.2649 14.7727 9.01528 14.7727 8.66964ZM6.25 13.8253C7.14015 13.8253 8.00682 13.926 8.85 14.1272C9.69242 14.3292 10.5303 14.6318 11.3636 15.0351V3.68676C10.5871 3.22591 9.76326 2.88028 8.89205 2.64986C8.02083 2.41944 7.14015 2.30422 6.25 2.30422C5.56818 2.30422 4.89129 2.37143 4.21932 2.50584C3.54659 2.64026 2.89773 2.84188 2.27273 3.1107V14.5166C2.93561 14.2862 3.59394 14.1134 4.24773 13.9982C4.90076 13.8829 5.56818 13.8253 6.25 13.8253ZM13.6364 15.0351C14.4697 14.6318 15.308 14.3292 16.1511 14.1272C16.9936 13.926 17.8598 13.8253 18.75 13.8253C19.4318 13.8253 20.0996 13.8829 20.7534 13.9982C21.4064 14.1134 22.0644 14.2862 22.7273 14.5166V3.1107C22.1023 2.84188 21.4538 2.64026 20.7818 2.50584C20.1091 2.37143 19.4318 2.30422 18.75 2.30422C17.8598 2.30422 16.9792 2.41944 16.108 2.64986C15.2367 2.88028 14.4129 3.22591 13.6364 3.68676V15.0351ZM12.5 17.8289C12.2348 17.8289 11.9841 17.7955 11.7477 17.7287C11.5106 17.6611 11.2879 17.5697 11.0795 17.4545C10.3409 17.0129 9.56439 16.6818 8.75 16.4614C7.93561 16.2402 7.10227 16.1296 6.25 16.1296C5.45455 16.1296 4.67348 16.2352 3.90682 16.4464C3.13939 16.6576 2.4053 16.9552 1.70455 17.3393C1.30682 17.5505 0.923485 17.5409 0.554545 17.3105C0.184849 17.0801 0 16.744 0 16.3024V2.41943C0 2.20821 0.0522727 2.00659 0.156818 1.81458C0.260606 1.62256 0.416667 1.47854 0.625 1.38253C1.49621 0.921689 2.4053 0.576056 3.35227 0.345634C4.29924 0.115211 5.26515 0 6.25 0C7.34848 0 8.42348 0.144014 9.475 0.432042C10.5258 0.72007 11.5341 1.15211 12.5 1.72817C13.4659 1.15211 14.4746 0.72007 15.5261 0.432042C16.5769 0.144014 17.6515 0 18.75 0C19.7348 0 20.7008 0.115211 21.6477 0.345634C22.5947 0.576056 23.5038 0.921689 24.375 1.38253C24.5833 1.47854 24.7398 1.62256 24.8443 1.81458C24.9481 2.00659 25 2.20821 25 2.41943V16.3024C25 16.744 24.8155 17.0801 24.4466 17.3105C24.0769 17.5409 23.6932 17.5505 23.2955 17.3393C22.5947 16.9552 21.8606 16.6576 21.0932 16.4464C20.3265 16.2352 19.5455 16.1296 18.75 16.1296C17.8977 16.1296 17.0644 16.2402 16.25 16.4614C15.4356 16.6818 14.6591 17.0129 13.9205 17.4545C13.7121 17.5697 13.4898 17.6611 13.2534 17.7287C13.0163 17.7955 12.7652 17.8289 12.5 17.8289Z" fill="white"/>
</svg>
