<svg width="16" height="24" viewBox="0 0 16 24" fill="none" xmlns="http://www.w3.org/2000/svg">
<path d="M14.4531 9.375H14.0625V4.6875C14.0625 2.10312 11.9594 0 9.375 0H6.25C3.66562 0 1.5625 2.10312 1.5625 4.6875V9.375H1.17188C0.861454 9.37623 0.5641 9.5001 0.344598 9.7196C0.125096 9.9391 0.00123429 10.2365 0 10.5469L0 22.2656C0 22.9094 0.528125 23.4375 1.17188 23.4375H14.4531C15.0969 23.4375 15.625 22.9094 15.625 22.2656V10.5469C15.6238 10.2365 15.4999 9.9391 15.2804 9.7196C15.0609 9.5001 14.7635 9.37623 14.4531 9.375ZM4.6875 4.6875C4.6875 3.82656 5.38906 3.125 6.25 3.125H9.375C10.2359 3.125 10.9375 3.82656 10.9375 4.6875V9.375H4.6875V4.6875Z" fill="white"/>
</svg>
