<svg width="32" height="29" viewBox="0 0 32 29" fill="none" xmlns="http://www.w3.org/2000/svg">
<g clip-path="url(#clip0_88_3248)">
<path d="M28.7376 4.83368C28.6165 4.82237 28.4943 4.82237 28.3732 4.83368H3.48429C3.32478 4.83591 3.16632 4.85758 3.01318 4.89813L15.8576 16.4901L28.7376 4.83368Z" fill="white"/>
<path d="M30.0531 5.95312L17.1109 17.6337C16.7778 17.9338 16.3272 18.1022 15.8576 18.1022C15.3879 18.1022 14.9373 17.9338 14.6042 17.6337L1.77755 6.04174C1.73812 6.17307 1.71722 6.30841 1.71533 6.44451V22.5556C1.71533 22.9829 1.90263 23.3927 2.23603 23.6949C2.56943 23.997 3.02161 24.1667 3.49311 24.1667H28.382C28.8535 24.1667 29.3057 23.997 29.6391 23.6949C29.9725 23.3927 30.1598 22.9829 30.1598 22.5556V6.44451C30.1527 6.27668 30.1167 6.11088 30.0531 5.95312ZM4.71089 22.5556H3.47533V21.4037L9.93755 15.5956L11.1909 16.7315L4.71089 22.5556ZM28.3642 22.5556H27.1198L20.6398 16.7315L21.8931 15.5956L28.3553 21.4037L28.3642 22.5556Z" fill="white"/>
</g>
<defs>
<clipPath id="clip0_88_3248">
<rect width="32" height="29" fill="white"/>
</clipPath>
</defs>
</svg>
