<svg width="32" height="32" viewBox="0 0 32 32" fill="none" xmlns="http://www.w3.org/2000/svg">
<path d="M16.0002 5.33301C17.4147 5.33301 18.7712 5.89491 19.7714 6.8951C20.7716 7.8953 21.3335 9.25185 21.3335 10.6663C21.3335 12.0808 20.7716 13.4374 19.7714 14.4376C18.7712 15.4378 17.4147 15.9997 16.0002 15.9997C14.5857 15.9997 13.2291 15.4378 12.2289 14.4376C11.2287 13.4374 10.6668 12.0808 10.6668 10.6663C10.6668 9.25185 11.2287 7.8953 12.2289 6.8951C13.2291 5.89491 14.5857 5.33301 16.0002 5.33301ZM16.0002 18.6663C21.8935 18.6663 26.6668 21.053 26.6668 23.9997V26.6663H5.3335V23.9997C5.3335 21.053 10.1068 18.6663 16.0002 18.6663Z" fill="white"/>
</svg>
