<svg width="26" height="25" viewBox="0 0 26 25" fill="none" xmlns="http://www.w3.org/2000/svg">
<g clip-path="url(#clip0_380_305)">
<path d="M25.7626 20.0847L17.8748 12.5003L25.7626 4.91591C25.9137 4.7688 25.9985 4.57035 25.9985 4.36357C25.9985 4.15678 25.9137 3.95833 25.7626 3.81122L22.0365 0.228412C21.9611 0.155705 21.8716 0.0980146 21.773 0.0586506C21.6745 0.0192866 21.5688 -0.000976563 21.462 -0.000976562C21.3553 -0.000976562 21.2496 0.0192866 21.151 0.0586506C21.0525 0.0980146 20.9629 0.155705 20.8876 0.228412L12.9998 7.81279L5.1121 0.228412C4.95973 0.0819502 4.75311 -0.000327471 4.53766 -0.000327471C4.32222 -0.000327471 4.11559 0.0819502 3.96322 0.228412L0.237099 3.81122C0.161484 3.88366 0.101486 3.96974 0.0605474 4.06453C0.0196088 4.15931 -0.00146484 4.26093 -0.00146484 4.36357C-0.00146484 4.4662 0.0196088 4.56783 0.0605474 4.66261C0.101486 4.75739 0.161484 4.84347 0.237099 4.91591L8.12485 12.5003L0.237099 20.0847C0.084779 20.2312 -0.000789788 20.4298 -0.000789788 20.637C-0.000789788 20.8442 0.084779 21.0428 0.237099 21.1893L3.96322 24.7722C4.03856 24.8449 4.12808 24.9026 4.22666 24.9419C4.32523 24.9813 4.43092 25.0016 4.53766 25.0016C4.6444 25.0016 4.75009 24.9813 4.84866 24.9419C4.94724 24.9026 5.03676 24.8449 5.1121 24.7722L12.9998 17.1878L20.8876 24.7722C21.04 24.9186 21.2466 25.0009 21.462 25.0009C21.6775 25.0009 21.8841 24.9186 22.0365 24.7722L25.7626 21.1893C25.8382 21.1169 25.8982 21.0308 25.9392 20.936C25.9801 20.8413 26.0012 20.7396 26.0012 20.637C26.0012 20.5344 25.9801 20.4327 25.9392 20.338C25.8982 20.2432 25.8382 20.1571 25.7626 20.0847Z" fill="black"/>
</g>
<defs>
<clipPath id="clip0_380_305">
<rect width="26" height="25" fill="white"/>
</clipPath>
</defs>
</svg>
